<mxfile host="app.diagrams.net" agent="Mozilla/5.0 (Windows NT 10.0; Win64; x64) AppleWebKit/537.36 (KHTML, like Gecko) Chrome/141.0.0.0 Safari/537.36" version="28.2.7">
  <diagram name="Page-1" id="ABiX7f4j8d2cATZOhZH7">
    <mxGraphModel dx="1426" dy="743" grid="1" gridSize="10" guides="1" tooltips="1" connect="1" arrows="1" fold="1" page="1" pageScale="1" pageWidth="850" pageHeight="1100" math="0" shadow="0">
      <root>
        <mxCell id="0" />
        <mxCell id="1" parent="0" />
        <mxCell id="foDWhS1sR1QHJlWw3vRa-1" value="home screen&lt;div&gt;Search screen&lt;/div&gt;" style="rounded=0;whiteSpace=wrap;html=1;" vertex="1" parent="1">
          <mxGeometry y="120" width="200" height="60" as="geometry" />
        </mxCell>
        <mxCell id="foDWhS1sR1QHJlWw3vRa-2" value="User login" style="rounded=0;whiteSpace=wrap;html=1;" vertex="1" parent="1">
          <mxGeometry y="360" width="120" height="60" as="geometry" />
        </mxCell>
        <mxCell id="foDWhS1sR1QHJlWw3vRa-3" value="User device&amp;nbsp;&lt;div&gt;Playing video&lt;/div&gt;" style="rounded=0;whiteSpace=wrap;html=1;" vertex="1" parent="1">
          <mxGeometry y="600" width="120" height="60" as="geometry" />
        </mxCell>
        <mxCell id="foDWhS1sR1QHJlWw3vRa-4" value="Search Service" style="rounded=1;whiteSpace=wrap;html=1;" vertex="1" parent="1">
          <mxGeometry x="300" y="60" width="120" height="60" as="geometry" />
        </mxCell>
        <mxCell id="foDWhS1sR1QHJlWw3vRa-5" value="Home page Service" style="rounded=1;whiteSpace=wrap;html=1;" vertex="1" parent="1">
          <mxGeometry x="300" y="150" width="120" height="60" as="geometry" />
        </mxCell>
        <mxCell id="foDWhS1sR1QHJlWw3vRa-7" value="MySql" style="shape=cylinder3;whiteSpace=wrap;html=1;boundedLbl=1;backgroundOutline=1;size=15;" vertex="1" parent="1">
          <mxGeometry x="690" y="350" width="60" height="80" as="geometry" />
        </mxCell>
        <mxCell id="foDWhS1sR1QHJlWw3vRa-8" value="LB" style="rounded=0;whiteSpace=wrap;html=1;rotation=1;direction=south;" vertex="1" parent="1">
          <mxGeometry x="200" y="350" width="20" height="90" as="geometry" />
        </mxCell>
        <mxCell id="foDWhS1sR1QHJlWw3vRa-10" value="LB" style="rounded=0;whiteSpace=wrap;html=1;rotation=1;direction=south;" vertex="1" parent="1">
          <mxGeometry x="230.00383524124166" y="109.99767034641044" width="20" height="90" as="geometry" />
        </mxCell>
        <mxCell id="foDWhS1sR1QHJlWw3vRa-11" value="LB" style="rounded=0;whiteSpace=wrap;html=1;rotation=1;direction=south;" vertex="1" parent="1">
          <mxGeometry x="190.00383524124166" y="584.9976703464105" width="20" height="90" as="geometry" />
        </mxCell>
        <mxCell id="foDWhS1sR1QHJlWw3vRa-12" value="" style="endArrow=classic;html=1;rounded=0;" edge="1" parent="1">
          <mxGeometry width="50" height="50" relative="1" as="geometry">
            <mxPoint x="120" y="400" as="sourcePoint" />
            <mxPoint x="190" y="400" as="targetPoint" />
          </mxGeometry>
        </mxCell>
        <mxCell id="foDWhS1sR1QHJlWw3vRa-13" value="" style="endArrow=classic;html=1;rounded=0;" edge="1" parent="1">
          <mxGeometry width="50" height="50" relative="1" as="geometry">
            <mxPoint x="200" y="149" as="sourcePoint" />
            <mxPoint x="235" y="149" as="targetPoint" />
          </mxGeometry>
        </mxCell>
        <mxCell id="foDWhS1sR1QHJlWw3vRa-14" value="" style="endArrow=classic;html=1;rounded=0;" edge="1" parent="1" source="foDWhS1sR1QHJlWw3vRa-6">
          <mxGeometry width="50" height="50" relative="1" as="geometry">
            <mxPoint x="370" y="390" as="sourcePoint" />
            <mxPoint x="440" y="390" as="targetPoint" />
          </mxGeometry>
        </mxCell>
        <mxCell id="foDWhS1sR1QHJlWw3vRa-15" value="" style="endArrow=classic;html=1;rounded=0;" edge="1" parent="1" target="foDWhS1sR1QHJlWw3vRa-6">
          <mxGeometry width="50" height="50" relative="1" as="geometry">
            <mxPoint x="370" y="390" as="sourcePoint" />
            <mxPoint x="440" y="390" as="targetPoint" />
          </mxGeometry>
        </mxCell>
        <mxCell id="foDWhS1sR1QHJlWw3vRa-6" value="User Service" style="rounded=1;whiteSpace=wrap;html=1;" vertex="1" parent="1">
          <mxGeometry x="330" y="370" width="120" height="60" as="geometry" />
        </mxCell>
        <mxCell id="foDWhS1sR1QHJlWw3vRa-16" value="" style="endArrow=classic;html=1;rounded=0;" edge="1" parent="1">
          <mxGeometry width="50" height="50" relative="1" as="geometry">
            <mxPoint x="120" y="629.5" as="sourcePoint" />
            <mxPoint x="190" y="629.5" as="targetPoint" />
          </mxGeometry>
        </mxCell>
        <mxCell id="foDWhS1sR1QHJlWw3vRa-17" value="Redis" style="rounded=1;whiteSpace=wrap;html=1;" vertex="1" parent="1">
          <mxGeometry x="580" y="370" width="60" height="60" as="geometry" />
        </mxCell>
        <mxCell id="foDWhS1sR1QHJlWw3vRa-18" value="" style="endArrow=classic;html=1;rounded=0;exitX=1;exitY=0.5;exitDx=0;exitDy=0;" edge="1" parent="1" source="foDWhS1sR1QHJlWw3vRa-6">
          <mxGeometry width="50" height="50" relative="1" as="geometry">
            <mxPoint x="510" y="400" as="sourcePoint" />
            <mxPoint x="580" y="400" as="targetPoint" />
          </mxGeometry>
        </mxCell>
        <mxCell id="foDWhS1sR1QHJlWw3vRa-19" value="" style="endArrow=classic;html=1;rounded=0;" edge="1" parent="1">
          <mxGeometry width="50" height="50" relative="1" as="geometry">
            <mxPoint x="640" y="399.5" as="sourcePoint" />
            <mxPoint x="690" y="400" as="targetPoint" />
          </mxGeometry>
        </mxCell>
        <mxCell id="foDWhS1sR1QHJlWw3vRa-20" value="" style="endArrow=classic;html=1;rounded=0;exitX=1;exitY=0.5;exitDx=0;exitDy=0;" edge="1" parent="1">
          <mxGeometry width="50" height="50" relative="1" as="geometry">
            <mxPoint x="220" y="399.5" as="sourcePoint" />
            <mxPoint x="330" y="400" as="targetPoint" />
          </mxGeometry>
        </mxCell>
        <mxCell id="foDWhS1sR1QHJlWw3vRa-21" value="Kafka" style="rounded=0;whiteSpace=wrap;html=1;rotation=90;" vertex="1" parent="1">
          <mxGeometry x="545" y="335" width="550" height="60" as="geometry" />
        </mxCell>
        <mxCell id="foDWhS1sR1QHJlWw3vRa-22" value="" style="endArrow=classic;html=1;rounded=0;entryX=0.842;entryY=-0.05;entryDx=0;entryDy=0;entryPerimeter=0;" edge="1" parent="1" target="foDWhS1sR1QHJlWw3vRa-6">
          <mxGeometry width="50" height="50" relative="1" as="geometry">
            <mxPoint x="420" y="100" as="sourcePoint" />
            <mxPoint x="520" y="100" as="targetPoint" />
            <Array as="points">
              <mxPoint x="431" y="110" />
            </Array>
          </mxGeometry>
        </mxCell>
        <mxCell id="foDWhS1sR1QHJlWw3vRa-23" value="" style="endArrow=classic;html=1;rounded=0;" edge="1" parent="1">
          <mxGeometry width="50" height="50" relative="1" as="geometry">
            <mxPoint x="450" y="385" as="sourcePoint" />
            <mxPoint x="780" y="240" as="targetPoint" />
            <Array as="points">
              <mxPoint x="450" y="240" />
            </Array>
          </mxGeometry>
        </mxCell>
        <mxCell id="foDWhS1sR1QHJlWw3vRa-24" value="Analytics Service" style="rounded=1;whiteSpace=wrap;html=1;" vertex="1" parent="1">
          <mxGeometry x="570" y="100" width="120" height="60" as="geometry" />
        </mxCell>
        <mxCell id="foDWhS1sR1QHJlWw3vRa-25" value="" style="endArrow=classic;html=1;rounded=0;entryX=1.025;entryY=0.617;entryDx=0;entryDy=0;entryPerimeter=0;" edge="1" parent="1" target="foDWhS1sR1QHJlWw3vRa-24">
          <mxGeometry width="50" height="50" relative="1" as="geometry">
            <mxPoint x="790" y="140" as="sourcePoint" />
            <mxPoint x="840" y="90" as="targetPoint" />
          </mxGeometry>
        </mxCell>
        <mxCell id="foDWhS1sR1QHJlWw3vRa-26" value="" style="endArrow=classic;html=1;rounded=0;" edge="1" parent="1">
          <mxGeometry width="50" height="50" relative="1" as="geometry">
            <mxPoint x="250" y="130" as="sourcePoint" />
            <mxPoint x="300" y="80" as="targetPoint" />
          </mxGeometry>
        </mxCell>
        <mxCell id="foDWhS1sR1QHJlWw3vRa-28" value="" style="endArrow=classic;html=1;rounded=0;entryX=0;entryY=0.5;entryDx=0;entryDy=0;" edge="1" parent="1" target="foDWhS1sR1QHJlWw3vRa-5">
          <mxGeometry width="50" height="50" relative="1" as="geometry">
            <mxPoint x="250" y="180" as="sourcePoint" />
            <mxPoint x="300" y="130" as="targetPoint" />
          </mxGeometry>
        </mxCell>
        <mxCell id="foDWhS1sR1QHJlWw3vRa-29" value="" style="endArrow=classic;html=1;rounded=0;entryX=1;entryY=0.5;entryDx=0;entryDy=0;" edge="1" parent="1" target="foDWhS1sR1QHJlWw3vRa-4">
          <mxGeometry width="50" height="50" relative="1" as="geometry">
            <mxPoint x="570" y="130" as="sourcePoint" />
            <mxPoint x="620" y="80" as="targetPoint" />
          </mxGeometry>
        </mxCell>
        <mxCell id="foDWhS1sR1QHJlWw3vRa-30" value="" style="endArrow=classic;html=1;rounded=0;entryX=1;entryY=0.5;entryDx=0;entryDy=0;" edge="1" parent="1">
          <mxGeometry width="50" height="50" relative="1" as="geometry">
            <mxPoint x="570" y="130" as="sourcePoint" />
            <mxPoint x="420" y="180" as="targetPoint" />
          </mxGeometry>
        </mxCell>
        <mxCell id="foDWhS1sR1QHJlWw3vRa-38" value="" style="edgeStyle=orthogonalEdgeStyle;rounded=0;orthogonalLoop=1;jettySize=auto;html=1;" edge="1" parent="1" source="foDWhS1sR1QHJlWw3vRa-31" target="foDWhS1sR1QHJlWw3vRa-32">
          <mxGeometry relative="1" as="geometry" />
        </mxCell>
        <mxCell id="foDWhS1sR1QHJlWw3vRa-31" value="Host Identity Service" style="rounded=1;whiteSpace=wrap;html=1;" vertex="1" parent="1">
          <mxGeometry x="310" y="540" width="120" height="60" as="geometry" />
        </mxCell>
        <mxCell id="foDWhS1sR1QHJlWw3vRa-40" value="" style="edgeStyle=orthogonalEdgeStyle;rounded=0;orthogonalLoop=1;jettySize=auto;html=1;" edge="1" parent="1" source="foDWhS1sR1QHJlWw3vRa-32" target="foDWhS1sR1QHJlWw3vRa-39">
          <mxGeometry relative="1" as="geometry" />
        </mxCell>
        <mxCell id="foDWhS1sR1QHJlWw3vRa-32" value="Asset Service" style="rounded=1;whiteSpace=wrap;html=1;" vertex="1" parent="1">
          <mxGeometry x="510" y="540" width="120" height="60" as="geometry" />
        </mxCell>
        <mxCell id="foDWhS1sR1QHJlWw3vRa-33" value="Stream Stats Logger" style="rounded=1;whiteSpace=wrap;html=1;" vertex="1" parent="1">
          <mxGeometry x="420" y="675" width="120" height="50" as="geometry" />
        </mxCell>
        <mxCell id="foDWhS1sR1QHJlWw3vRa-34" value="" style="endArrow=classic;html=1;rounded=0;entryX=0;entryY=0.5;entryDx=0;entryDy=0;" edge="1" parent="1" target="foDWhS1sR1QHJlWw3vRa-33">
          <mxGeometry width="50" height="50" relative="1" as="geometry">
            <mxPoint x="210" y="670" as="sourcePoint" />
            <mxPoint x="260" y="620" as="targetPoint" />
          </mxGeometry>
        </mxCell>
        <mxCell id="foDWhS1sR1QHJlWw3vRa-35" value="" style="endArrow=classic;html=1;rounded=0;exitX=1;exitY=0.5;exitDx=0;exitDy=0;entryX=1;entryY=0.75;entryDx=0;entryDy=0;" edge="1" parent="1" source="foDWhS1sR1QHJlWw3vRa-33" target="foDWhS1sR1QHJlWw3vRa-21">
          <mxGeometry width="50" height="50" relative="1" as="geometry">
            <mxPoint x="680" y="650" as="sourcePoint" />
            <mxPoint x="780" y="590" as="targetPoint" />
            <Array as="points">
              <mxPoint x="780" y="700" />
            </Array>
          </mxGeometry>
        </mxCell>
        <mxCell id="foDWhS1sR1QHJlWw3vRa-36" value="" style="endArrow=classic;html=1;rounded=0;entryX=0;entryY=0.5;entryDx=0;entryDy=0;" edge="1" parent="1" target="foDWhS1sR1QHJlWw3vRa-31">
          <mxGeometry width="50" height="50" relative="1" as="geometry">
            <mxPoint x="210" y="620" as="sourcePoint" />
            <mxPoint x="260" y="570" as="targetPoint" />
          </mxGeometry>
        </mxCell>
        <mxCell id="foDWhS1sR1QHJlWw3vRa-39" value="Cassandra" style="shape=cylinder3;whiteSpace=wrap;html=1;boundedLbl=1;backgroundOutline=1;size=15;" vertex="1" parent="1">
          <mxGeometry x="690" y="530" width="60" height="80" as="geometry" />
        </mxCell>
      </root>
    </mxGraphModel>
  </diagram>
</mxfile>
